<?xml version="1.0" encoding="iso-8859-1"?>
<!-- Generator: Adobe Illustrator 19.0.0, SVG Export Plug-In . SVG Version: 6.00 Build 0)  -->
<svg version="1.1" id="Layer_1" xmlns="http://www.w3.org/2000/svg" xmlns:xlink="http://www.w3.org/1999/xlink" x="0px" y="0px"
	 viewBox="0 0 340.774 340.774" style="enable-background:new 0 0 340.774 340.774;" xml:space="preserve">
<g>
	<polygon style="fill:#13829B;" points="160.66,240.841 7.497,137.693 160.66,34.545 313.823,137.693 	"/>
	<polygon style="fill:#13829B;" points="160.66,240.84 61.584,174.118 61.584,239.507 160.66,306.229 259.735,239.507 
		259.735,174.118 	"/>
	<g>
		
			<rect x="300.067" y="227.082" transform="matrix(-0.7071 -0.7071 0.7071 -0.7071 365.4291 633.0383)" style="fill:#28D2E4;" width="27.508" height="27.508"/>
		<path style="fill:#22313F;" d="M338.578,235.537l-17.255-17.255v-80.589c0-2.402-1.181-4.789-3.324-6.23L164.849,28.325
			c-2.533-1.706-5.846-1.706-8.379,0L3.307,131.472c-4.409,2.969-4.41,9.471,0,12.441l50.777,34.196v61.397
			c0,2.495,1.241,4.827,3.311,6.221l99.075,66.722c2.532,1.705,5.846,1.706,8.379,0l99.075-66.722
			c2.069-1.393,3.31-3.726,3.31-6.221v-61.397l39.088-26.324v66.497l-17.255,17.254c-2.927,2.925-2.93,7.678-0.001,10.606
			l19.452,19.452c2.928,2.927,7.677,2.929,10.607,0l19.451-19.452C341.506,243.215,341.506,238.466,338.578,235.537z
			 M252.235,188.211v47.304l-91.575,61.671l-91.575-61.671v-47.304l87.386,58.85c2.216,1.493,5.03,1.68,7.395,0.56
			c0.338-0.16,0.667-0.346,0.983-0.56L252.235,188.211z M255.546,167.897L255.546,167.897l-94.886,63.901l-94.886-63.901l0,0
			l-44.85-30.204L160.66,43.587l139.736,94.106L255.546,167.897z M313.823,249.686l-8.846-8.845l8.846-8.845l8.845,8.845
			L313.823,249.686z"/>
	</g>
</g>
<g>
</g>
<g>
</g>
<g>
</g>
<g>
</g>
<g>
</g>
<g>
</g>
<g>
</g>
<g>
</g>
<g>
</g>
<g>
</g>
<g>
</g>
<g>
</g>
<g>
</g>
<g>
</g>
<g>
</g>
</svg>
